<?xml version="1.0" standalone="no"?><!DOCTYPE svg PUBLIC "-//W3C//DTD SVG 1.1//EN" "http://www.w3.org/Graphics/SVG/1.1/DTD/svg11.dtd"><svg class="icon" width="16px" height="16.00px" viewBox="0 0 1024 1024" version="1.1" xmlns="http://www.w3.org/2000/svg"><path d="M819.2 1024 204.8 1024c-64.629029 0-117.028571-52.399543-117.028571-117.028571L87.771429 117.028571c0-64.629029 52.399543-117.028571 117.028571-117.028571l438.857143 0 0 0 292.571429 292.571429 0 614.4C936.228571 971.600457 883.829029 1024 819.2 1024zM204.8 804.571429C204.8 812.6464 211.3536 819.2 219.428571 819.2l585.142857 0c8.074971 0 14.628571-6.5536 14.628571-14.628571l0-29.257143c0-8.074971-6.5536-14.628571-14.628571-14.628571l-585.142857 0C211.3536 760.685714 204.8 767.239314 204.8 775.314286L204.8 804.571429zM585.142857 394.971429c0-8.074971-6.5536-14.628571-14.628571-14.628571l-351.085714 0C211.3536 380.342857 204.8 386.896457 204.8 394.971429l0 29.257143C204.8 432.303543 211.3536 438.857143 219.428571 438.857143l351.085714 0c8.074971 0 14.628571-6.5536 14.628571-14.628571L585.142857 394.971429zM219.428571 555.885714C211.3536 555.885714 204.8 562.439314 204.8 570.514286l0 29.257143C204.8 607.8464 211.3536 614.4 219.428571 614.4l468.114286 0c8.074971 0 14.628571-6.5536 14.628571-14.628571l0-29.257143c0-8.074971-6.5536-14.628571-14.628571-14.628571L219.428571 555.885714zM643.657143 58.514286l0 117.028571c0 64.629029 52.399543 117.028571 117.028571 117.028571l117.028571 0L643.657143 58.514286z" fill="#e98f36" /></svg>