<?xml version="1.0" standalone="no"?><!DOCTYPE svg PUBLIC "-//W3C//DTD SVG 1.1//EN" "http://www.w3.org/Graphics/SVG/1.1/DTD/svg11.dtd"><svg class="icon" width="16px" height="16.00px" viewBox="0 0 1024 1024" version="1.1" xmlns="http://www.w3.org/2000/svg"><path d="M512 0C229.248 0 0 229.248 0 512s229.248 512 512 512 512-229.248 512-512S794.752 0 512 0zM509.76 128c105.856 0 192 86.144 192 192 0 105.856-86.144 192-192 192-105.856 0-192-86.144-192-192C317.76 214.144 403.904 128 509.76 128zM234.688 810.688l25.408-228.416 118.528-47.424 15.872 39.616L299.648 612.416 282.304 768l464.32 0-17.28-155.584L634.56 574.464l15.872-39.616 118.528 47.424 25.344 228.416L234.688 810.688z" fill="#1296db" /><path d="M509.76 320m-149.312 0a2.333 2.333 0 1 0 298.624 0 2.333 2.333 0 1 0-298.624 0Z" fill="#1296db" /></svg>